<svg xmlns="http://www.w3.org/2000/svg" xmlns:xlink="http://www.w3.org/1999/xlink" width="24" height="24" viewBox="0 0 24 24">
    <defs>
        <path id="prefix__a" d="M2.929.69c.625 0 1.217.314 1.585.84l1.755 2.512c.613.88.397 2.091-.48 2.702l-.836.583c.655.978 1.571 2.069 2.611 3.109 1.04 1.04 2.131 1.955 3.11 2.611l.582-.836c.363-.52.957-.83 1.59-.83.399 0 .783.12 1.112.35l2.513 1.755c.723.506 1.022 1.418.726 2.217-.085.23-.19.444-.31.636l-.244.35c-.079.101-.152.182-.23.26-.423.422-.959.723-1.592.892-.391.104-.82.157-1.275.157l-.269-.006c-2.618-.113-5.906-1.858-8.659-4.61C1.228 9.992-.565 5.89.158 3.179c.17-.633.471-1.169.894-1.592.077-.078.158-.15.245-.219l.347-.244c.21-.132.423-.236.653-.32C2.5.728 2.712.69 2.93.69zm0 .776c-.124 0-.247.022-.362.065-.18.066-.347.147-.494.24l-.315.221c-.046.036-.103.089-.157.144-.326.325-.559.744-.692 1.244-.645 2.414 1.107 6.302 4.258 9.453 2.707 2.707 5.917 4.39 8.378 4.39l.23-.006c.302-.014.585-.056.846-.126.5-.133.918-.366 1.243-.692.056-.054.108-.11.155-.172l.222-.317c.08-.13.162-.296.228-.476.174-.469-.008-1.008-.442-1.312l-2.513-1.755c-.511-.356-1.267-.22-1.621.288l-.798 1.144c-.119.17-.35.216-.525.107-1.102-.694-2.364-1.73-3.555-2.922-1.19-1.19-2.228-2.453-2.92-3.554-.11-.175-.063-.406.106-.524l1.144-.799c.526-.366.656-1.093.288-1.621L3.878 1.974c-.222-.318-.577-.508-.95-.508zm5.708 3.18c1.226.078 2.38.599 3.25 1.468.868.87 1.39 2.023 1.467 3.248.013.214-.15.398-.363.412h-.025c-.203 0-.374-.158-.387-.363-.065-1.037-.506-2.013-1.241-2.749-.736-.735-1.712-1.176-2.75-1.24-.213-.015-.376-.198-.362-.413.013-.213.194-.377.411-.362zm.146-2.322c1.792.112 3.479.873 4.749 2.144 1.27 1.27 2.032 2.957 2.144 4.749.014.214-.148.398-.363.411l-.024.001c-.203 0-.374-.158-.387-.364-.1-1.603-.781-3.112-1.918-4.248-1.137-1.137-2.646-1.818-4.25-1.919-.214-.014-.376-.197-.363-.412.014-.213.197-.374.412-.362zM8.928 0c2.358.147 4.578 1.149 6.25 2.821C16.85 4.494 17.852 6.714 18 9.072c.014.213-.148.397-.363.41l-.024.002c-.203 0-.374-.159-.387-.364-.136-2.17-1.057-4.211-2.595-5.75C13.09 1.834 11.05.91 8.88.776 8.666.762 8.503.577 8.517.364 8.53.15 8.716-.013 8.928 0z"/>
    </defs>
    <g fill="none" fill-rule="evenodd" transform="translate(3 3)">
        <mask id="prefix__b" fill="#fff">
            <use xlink:href="#prefix__a"/>
        </mask>
        <use fill="#000" xlink:href="#prefix__a"/>
        <g fill="#000" mask="url(#prefix__b)">
            <path d="M0 0H24V24H0z" transform="translate(-3 -3)"/>
        </g>
    </g>
</svg>
